<svg width="16" height="16" viewBox="0 0 16 16" fill="none" xmlns="http://www.w3.org/2000/svg">
<path d="M12 7.16666C11.7267 7.16666 11.5 6.93999 11.5 6.66666V5.33333C11.5 3.23333 10.9067 1.83333 8 1.83333C5.09333 1.83333 4.5 3.23333 4.5 5.33333V6.66666C4.5 6.93999 4.27333 7.16666 4 7.16666C3.72667 7.16666 3.5 6.93999 3.5 6.66666V5.33333C3.5 3.39999 3.96667 0.833328 8 0.833328C12.0333 0.833328 12.5 3.39999 12.5 5.33333V6.66666C12.5 6.93999 12.2733 7.16666 12 7.16666Z" fill="white"/>
<path d="M7.99992 12.8333C6.80659 12.8333 5.83325 11.86 5.83325 10.6667C5.83325 9.47333 6.80659 8.5 7.99992 8.5C9.19325 8.5 10.1666 9.47333 10.1666 10.6667C10.1666 11.86 9.19325 12.8333 7.99992 12.8333ZM7.99992 9.5C7.35992 9.5 6.83325 10.0267 6.83325 10.6667C6.83325 11.3067 7.35992 11.8333 7.99992 11.8333C8.63992 11.8333 9.16659 11.3067 9.16659 10.6667C9.16659 10.0267 8.63992 9.5 7.99992 9.5Z" fill="white"/>
<path d="M11.3333 15.1667H4.66659C1.72659 15.1667 0.833252 14.2733 0.833252 11.3333V9.99999C0.833252 7.05999 1.72659 6.16666 4.66659 6.16666H11.3333C14.2733 6.16666 15.1666 7.05999 15.1666 9.99999V11.3333C15.1666 14.2733 14.2733 15.1667 11.3333 15.1667ZM4.66659 7.16666C2.27992 7.16666 1.83325 7.61999 1.83325 9.99999V11.3333C1.83325 13.7133 2.27992 14.1667 4.66659 14.1667H11.3333C13.7199 14.1667 14.1666 13.7133 14.1666 11.3333V9.99999C14.1666 7.61999 13.7199 7.16666 11.3333 7.16666H4.66659Z" fill="white"/>
</svg>
